<mxfile host="app.diagrams.net" agent="Mozilla/5.0 (Windows NT 10.0; Win64; x64) AppleWebKit/537.36 (KHTML, like Gecko) Chrome/126.0.0.0 Safari/537.36" version="24.7.7">
  <diagram name="Page-1" id="ebSgqEVxzA0o9-JMc4dg">
    <mxGraphModel dx="2261" dy="772" grid="1" gridSize="10" guides="1" tooltips="1" connect="1" arrows="1" fold="1" page="1" pageScale="1" pageWidth="827" pageHeight="1169" math="0" shadow="0">
      <root>
        <mxCell id="0" />
        <mxCell id="1" parent="0" />
        <mxCell id="Q2sIWeCzxGXPBb0YcupN-14" value="" style="ellipse;html=1;shape=startState;fillColor=#000000;strokeColor=#ff0000;sketch=1;hachureGap=4;jiggle=2;curveFitting=1;fontFamily=Architects Daughter;fontSource=https%3A%2F%2Ffonts.googleapis.com%2Fcss%3Ffamily%3DArchitects%2BDaughter;" vertex="1" parent="1">
          <mxGeometry x="399" y="10" width="30" height="30" as="geometry" />
        </mxCell>
        <mxCell id="Q2sIWeCzxGXPBb0YcupN-15" value="" style="edgeStyle=orthogonalEdgeStyle;html=1;verticalAlign=bottom;endArrow=open;endSize=8;strokeColor=#ff0000;rounded=0;sketch=1;hachureGap=4;jiggle=2;curveFitting=1;fontFamily=Architects Daughter;fontSource=https%3A%2F%2Ffonts.googleapis.com%2Fcss%3Ffamily%3DArchitects%2BDaughter;" edge="1" source="Q2sIWeCzxGXPBb0YcupN-14" parent="1">
          <mxGeometry relative="1" as="geometry">
            <mxPoint x="414" y="100" as="targetPoint" />
            <Array as="points">
              <mxPoint x="414" y="70" />
              <mxPoint x="415" y="70" />
            </Array>
          </mxGeometry>
        </mxCell>
        <mxCell id="Q2sIWeCzxGXPBb0YcupN-16" value="Init ()" style="swimlane;fontStyle=1;align=center;verticalAlign=middle;childLayout=stackLayout;horizontal=1;startSize=30;horizontalStack=0;resizeParent=0;resizeLast=1;container=0;collapsible=0;rounded=1;arcSize=30;strokeColor=#b85450;fillColor=#f8cecc;swimlaneFillColor=#ffffc0;dropTarget=0;sketch=1;hachureGap=4;jiggle=2;curveFitting=1;fontFamily=Architects Daughter;fontSource=https%3A%2F%2Ffonts.googleapis.com%2Fcss%3Ffamily%3DArchitects%2BDaughter;" vertex="1" parent="1">
          <mxGeometry x="334" y="110" width="160" height="60" as="geometry" />
        </mxCell>
        <mxCell id="Q2sIWeCzxGXPBb0YcupN-17" value="Affiiche les recettes et initialise les tags" style="text;html=1;strokeColor=#b85450;fillColor=#f8cecc;align=center;verticalAlign=middle;spacingLeft=4;spacingRight=4;whiteSpace=wrap;overflow=hidden;rotatable=0;fontFamily=Architects Daughter;fontSource=https%3A%2F%2Ffonts.googleapis.com%2Fcss%3Ffamily%3DArchitects%2BDaughter;" vertex="1" parent="Q2sIWeCzxGXPBb0YcupN-16">
          <mxGeometry y="30" width="160" height="30" as="geometry" />
        </mxCell>
        <mxCell id="Q2sIWeCzxGXPBb0YcupN-23" value="&lt;span style=&quot;font-family: Helvetica;&quot;&gt;Sélection tags ( recherche avancée )&lt;/span&gt;" style="rounded=1;whiteSpace=wrap;html=1;arcSize=40;fillColor=#d5e8d4;strokeColor=#82b366;sketch=1;hachureGap=4;jiggle=2;curveFitting=1;fontFamily=Architects Daughter;fontSource=https%3A%2F%2Ffonts.googleapis.com%2Fcss%3Ffamily%3DArchitects%2BDaughter;" vertex="1" parent="1">
          <mxGeometry x="510" y="200" width="220" height="60" as="geometry" />
        </mxCell>
        <mxCell id="Q2sIWeCzxGXPBb0YcupN-43" value="" style="edgeStyle=orthogonalEdgeStyle;rounded=0;sketch=1;hachureGap=4;jiggle=2;curveFitting=1;orthogonalLoop=1;jettySize=auto;html=1;fontFamily=Architects Daughter;fontSource=https%3A%2F%2Ffonts.googleapis.com%2Fcss%3Ffamily%3DArchitects%2BDaughter;" edge="1" parent="1" source="Q2sIWeCzxGXPBb0YcupN-26" target="Q2sIWeCzxGXPBb0YcupN-32">
          <mxGeometry relative="1" as="geometry" />
        </mxCell>
        <mxCell id="Q2sIWeCzxGXPBb0YcupN-48" value="" style="edgeStyle=orthogonalEdgeStyle;rounded=0;sketch=1;hachureGap=4;jiggle=2;curveFitting=1;orthogonalLoop=1;jettySize=auto;html=1;fontFamily=Architects Daughter;fontSource=https%3A%2F%2Ffonts.googleapis.com%2Fcss%3Ffamily%3DArchitects%2BDaughter;" edge="1" parent="1" source="Q2sIWeCzxGXPBb0YcupN-26" target="Q2sIWeCzxGXPBb0YcupN-32">
          <mxGeometry relative="1" as="geometry" />
        </mxCell>
        <mxCell id="Q2sIWeCzxGXPBb0YcupN-26" value="&lt;span style=&quot;font-family: Helvetica;&quot;&gt;Récupération de la valeur dans la barre de recherche ( recherche simple)&amp;nbsp;&lt;/span&gt;" style="rounded=1;whiteSpace=wrap;html=1;arcSize=40;fillColor=#d5e8d4;strokeColor=#82b366;sketch=1;hachureGap=4;jiggle=2;curveFitting=1;fontFamily=Architects Daughter;fontSource=https%3A%2F%2Ffonts.googleapis.com%2Fcss%3Ffamily%3DArchitects%2BDaughter;" vertex="1" parent="1">
          <mxGeometry x="100" y="200" width="240" height="60" as="geometry" />
        </mxCell>
        <mxCell id="Q2sIWeCzxGXPBb0YcupN-30" value="" style="edgeStyle=orthogonalEdgeStyle;html=1;verticalAlign=bottom;endArrow=open;endSize=8;strokeColor=#ff0000;rounded=0;sketch=1;hachureGap=4;jiggle=2;curveFitting=1;fontFamily=Architects Daughter;fontSource=https%3A%2F%2Ffonts.googleapis.com%2Fcss%3Ffamily%3DArchitects%2BDaughter;entryX=0.5;entryY=0;entryDx=0;entryDy=0;" edge="1" parent="1" target="Q2sIWeCzxGXPBb0YcupN-26">
          <mxGeometry relative="1" as="geometry">
            <mxPoint x="360" y="220" as="targetPoint" />
            <mxPoint x="360" y="160" as="sourcePoint" />
          </mxGeometry>
        </mxCell>
        <mxCell id="Q2sIWeCzxGXPBb0YcupN-31" value="" style="edgeStyle=orthogonalEdgeStyle;html=1;verticalAlign=bottom;endArrow=open;endSize=8;strokeColor=#ff0000;rounded=0;sketch=1;hachureGap=4;jiggle=2;curveFitting=1;fontFamily=Architects Daughter;fontSource=https%3A%2F%2Ffonts.googleapis.com%2Fcss%3Ffamily%3DArchitects%2BDaughter;entryX=0.5;entryY=0;entryDx=0;entryDy=0;exitX=1;exitY=0.75;exitDx=0;exitDy=0;" edge="1" parent="1" source="Q2sIWeCzxGXPBb0YcupN-17">
          <mxGeometry relative="1" as="geometry">
            <mxPoint x="640" y="200" as="targetPoint" />
            <mxPoint x="780" y="160" as="sourcePoint" />
          </mxGeometry>
        </mxCell>
        <mxCell id="Q2sIWeCzxGXPBb0YcupN-32" value="&lt;span style=&quot;font-family: Helvetica;&quot;&gt;Vérification du nombre de lettres saisies&lt;/span&gt;&lt;div style=&quot;font-family: Helvetica;&quot;&gt;( &amp;gt;= 3 )&lt;/div&gt;" style="rhombus;whiteSpace=wrap;html=1;fontColor=#000000;fillColor=#ffffc0;strokeColor=#ff0000;sketch=1;hachureGap=4;jiggle=2;curveFitting=1;fontFamily=Architects Daughter;fontSource=https%3A%2F%2Ffonts.googleapis.com%2Fcss%3Ffamily%3DArchitects%2BDaughter;" vertex="1" parent="1">
          <mxGeometry x="95" y="310" width="250" height="170" as="geometry" />
        </mxCell>
        <mxCell id="Q2sIWeCzxGXPBb0YcupN-33" value="no" style="edgeStyle=orthogonalEdgeStyle;html=1;align=left;verticalAlign=bottom;endArrow=open;endSize=8;strokeColor=#ff0000;rounded=0;sketch=1;hachureGap=4;jiggle=2;curveFitting=1;fontFamily=Architects Daughter;fontSource=https%3A%2F%2Ffonts.googleapis.com%2Fcss%3Ffamily%3DArchitects%2BDaughter;exitX=1;exitY=0.5;exitDx=0;exitDy=0;" edge="1" source="Q2sIWeCzxGXPBb0YcupN-32" parent="1">
          <mxGeometry x="-1" relative="1" as="geometry">
            <mxPoint x="420" y="395" as="targetPoint" />
          </mxGeometry>
        </mxCell>
        <mxCell id="Q2sIWeCzxGXPBb0YcupN-34" value="yes" style="edgeStyle=orthogonalEdgeStyle;html=1;align=left;verticalAlign=top;endArrow=open;endSize=8;strokeColor=#ff0000;rounded=0;sketch=1;hachureGap=4;jiggle=2;curveFitting=1;fontFamily=Architects Daughter;fontSource=https%3A%2F%2Ffonts.googleapis.com%2Fcss%3Ffamily%3DArchitects%2BDaughter;" edge="1" source="Q2sIWeCzxGXPBb0YcupN-32" parent="1">
          <mxGeometry x="-1" relative="1" as="geometry">
            <mxPoint x="220" y="550" as="targetPoint" />
          </mxGeometry>
        </mxCell>
        <mxCell id="Q2sIWeCzxGXPBb0YcupN-35" value="" style="edgeStyle=orthogonalEdgeStyle;html=1;verticalAlign=bottom;endArrow=open;endSize=8;strokeColor=#ff0000;rounded=0;sketch=1;hachureGap=4;jiggle=2;curveFitting=1;fontFamily=Architects Daughter;fontSource=https%3A%2F%2Ffonts.googleapis.com%2Fcss%3Ffamily%3DArchitects%2BDaughter;" edge="1" parent="1">
          <mxGeometry relative="1" as="geometry">
            <mxPoint x="219.5" y="310" as="targetPoint" />
            <mxPoint x="220" y="270" as="sourcePoint" />
            <Array as="points">
              <mxPoint x="219.5" y="290" />
              <mxPoint x="220.5" y="290" />
            </Array>
          </mxGeometry>
        </mxCell>
        <mxCell id="Q2sIWeCzxGXPBb0YcupN-38" value="&lt;span style=&quot;font-family: Helvetica;&quot;&gt;Recherche réinitialisée&lt;/span&gt;" style="rounded=1;whiteSpace=wrap;html=1;arcSize=40;fillColor=#d5e8d4;strokeColor=#82b366;sketch=1;hachureGap=4;jiggle=2;curveFitting=1;fontFamily=Architects Daughter;fontSource=https%3A%2F%2Ffonts.googleapis.com%2Fcss%3Ffamily%3DArchitects%2BDaughter;" vertex="1" parent="1">
          <mxGeometry x="420" y="362.5" width="161" height="65" as="geometry" />
        </mxCell>
        <mxCell id="Q2sIWeCzxGXPBb0YcupN-39" value="&lt;span style=&quot;font-family: Helvetica;&quot;&gt;Parcourir la liste des recettes&lt;/span&gt;" style="rounded=1;whiteSpace=wrap;html=1;arcSize=40;fillColor=#d5e8d4;strokeColor=#82b366;sketch=1;hachureGap=4;jiggle=2;curveFitting=1;fontFamily=Architects Daughter;fontSource=https%3A%2F%2Ffonts.googleapis.com%2Fcss%3Ffamily%3DArchitects%2BDaughter;" vertex="1" parent="1">
          <mxGeometry x="139.5" y="552" width="161" height="65" as="geometry" />
        </mxCell>
        <mxCell id="Q2sIWeCzxGXPBb0YcupN-45" value="Est ce que la valeur saisie correspond&amp;nbsp;&lt;div&gt;à l&#39;un des éléments suivants&amp;nbsp;&lt;/div&gt;&lt;div&gt;(Le nom, La description, ou l&#39;un des ingrédients de la recette)&amp;nbsp;&lt;/div&gt;" style="rhombus;whiteSpace=wrap;html=1;fontColor=#000000;fillColor=#ffffc0;strokeColor=#ff0000;sketch=1;hachureGap=4;jiggle=2;curveFitting=1;fontFamily=Architects Daughter;fontSource=https%3A%2F%2Ffonts.googleapis.com%2Fcss%3Ffamily%3DArchitects%2BDaughter;" vertex="1" parent="1">
          <mxGeometry x="-15" y="670" width="470" height="150" as="geometry" />
        </mxCell>
        <mxCell id="Q2sIWeCzxGXPBb0YcupN-46" value="no" style="edgeStyle=orthogonalEdgeStyle;html=1;align=left;verticalAlign=bottom;endArrow=open;endSize=8;strokeColor=#ff0000;rounded=0;sketch=1;hachureGap=4;jiggle=2;curveFitting=1;fontFamily=Architects Daughter;fontSource=https%3A%2F%2Ffonts.googleapis.com%2Fcss%3Ffamily%3DArchitects%2BDaughter;" edge="1" source="Q2sIWeCzxGXPBb0YcupN-45" parent="1">
          <mxGeometry x="-1" relative="1" as="geometry">
            <mxPoint x="560" y="745" as="targetPoint" />
          </mxGeometry>
        </mxCell>
        <mxCell id="Q2sIWeCzxGXPBb0YcupN-47" value="yes" style="edgeStyle=orthogonalEdgeStyle;html=1;align=left;verticalAlign=top;endArrow=open;endSize=8;strokeColor=#ff0000;rounded=0;sketch=1;hachureGap=4;jiggle=2;curveFitting=1;fontFamily=Architects Daughter;fontSource=https%3A%2F%2Ffonts.googleapis.com%2Fcss%3Ffamily%3DArchitects%2BDaughter;exitX=0.5;exitY=1;exitDx=0;exitDy=0;" edge="1" source="Q2sIWeCzxGXPBb0YcupN-45" parent="1">
          <mxGeometry x="-1" relative="1" as="geometry">
            <mxPoint x="220" y="880" as="targetPoint" />
            <Array as="points">
              <mxPoint x="220" y="850" />
              <mxPoint x="220" y="850" />
            </Array>
          </mxGeometry>
        </mxCell>
        <mxCell id="Q2sIWeCzxGXPBb0YcupN-52" value="" style="edgeStyle=orthogonalEdgeStyle;html=1;verticalAlign=bottom;endArrow=open;endSize=8;strokeColor=#ff0000;rounded=0;sketch=1;hachureGap=4;jiggle=2;curveFitting=1;fontFamily=Architects Daughter;fontSource=https%3A%2F%2Ffonts.googleapis.com%2Fcss%3Ffamily%3DArchitects%2BDaughter;entryX=0.5;entryY=0;entryDx=0;entryDy=0;exitX=0.5;exitY=1;exitDx=0;exitDy=0;" edge="1" source="Q2sIWeCzxGXPBb0YcupN-39" parent="1" target="Q2sIWeCzxGXPBb0YcupN-45">
          <mxGeometry relative="1" as="geometry">
            <mxPoint x="410" y="700" as="targetPoint" />
            <Array as="points" />
          </mxGeometry>
        </mxCell>
      </root>
    </mxGraphModel>
  </diagram>
</mxfile>
